<svg width="194" height="64" viewBox="0 0 194 64" fill="none" xmlns="http://www.w3.org/2000/svg">
<g clip-path="url(#clip0_553_873)">
<path d="M11.783 30C19.3207 30 23.9377 26.5084 23.9377 16.8516V0H17.1463V17.1727C17.1463 22.4105 14.7028 23.9074 11.9185 23.9074C9.13409 23.9074 6.7579 22.3748 6.72381 18.099H0.00153356C-0.10075 27.0074 4.92438 30 11.783 30Z" fill="white"/>
<path d="M41.0919 30C49.9384 30 55.9532 23.8269 55.9532 14.9692C55.9532 6.11152 49.9374 0 41.0919 0C32.2463 0 26.2627 6.11251 26.2627 14.9702C26.2627 23.8279 32.2775 30.001 41.0919 30.001V30ZM41.0919 5.74278C45.9172 5.74278 49.5842 9.43314 49.5842 14.9692C49.5842 20.5052 45.9172 24.1956 41.0919 24.1956C36.2666 24.1956 32.5995 20.5052 32.5995 14.9692C32.5995 9.43314 36.2988 5.74278 41.0919 5.74278Z" fill="white"/>
<path d="M65.0581 18.6089H77.227V29.9921H84.0174V0H77.227V12.6941H65.0581V0H58.3018V30H65.0581V18.6089Z" fill="white"/>
<path d="M113.92 22.8469V20.8869V0H107.012V15.656L86.3379 0V9.10913L113.92 29.9304V22.8469Z" fill="white"/>
<path d="M86.3379 19.4835V29.996H100.115L86.3379 19.4835Z" fill="white"/>
<path d="M89.326 34.0119L84.8104 56.3529L78.7321 34.0119H73.062L67.0188 56.3529L62.4691 34.0119H55.6445L62.0278 63.9424H71.1613L75.9146 45.0582L80.6338 63.9424H89.8014L96.1846 34.0119H89.326Z" fill="white"/>
<path d="M118.545 34.0119L113.792 52.8961L109.072 34.0119H99.9047L93.5215 63.9424H100.38L104.896 41.6014L110.974 63.9424H116.643L122.687 41.6014L127.237 63.9424H134.062L127.678 34.0119H118.545Z" fill="white"/>
<path d="M20.7142 34.001V49.657L0 34.001V63.9682H6.75636V48.181L27.6221 63.9314V34.001H20.7142Z" fill="white"/>
<path d="M187.515 34.001V49.657L166.841 34.001V43.1101L194.423 63.9314V34.001H187.515Z" fill="white"/>
<path d="M166.841 63.9613H180.618L166.841 53.4488V63.9613Z" fill="white"/>
<path d="M155.182 34.0119H145.675L134.641 63.9424H141.635L144.083 57.4979H156.908L157.327 58.5773L159.223 63.9424H166.251L155.182 34.0119ZM150.428 40.7933L154.946 52.4409H146.004L150.428 40.7933Z" fill="white"/>
<path d="M53.2945 34.0119H29.9531V39.8203H53.2945V34.0119Z" fill="white"/>
<path d="M53.2945 58.0992H29.9531V63.9424H53.2945V58.0992Z" fill="white"/>
<path d="M53.2945 46.4218H29.9531V51.4798H53.2945V46.4218Z" fill="white"/>
</g>
<defs>
<clipPath id="clip0_553_873">
<rect width="194" height="63.9682" fill="white"/>
</clipPath>
</defs>
</svg>
