<svg width="588" height="52" viewBox="0 0 588 52" fill="none" xmlns="http://www.w3.org/2000/svg">
<g clip-path="url(#clip0_413_677)">
<path d="M21.6525 52C35.1834 52 43.4714 45.9479 43.4714 29.2095V0H31.28V29.766C31.28 38.845 26.8938 41.4394 21.8956 41.4394C16.8973 41.4394 12.6318 38.7829 12.5706 31.3716H0.503424C0.319815 46.8127 9.34046 52 21.6525 52Z" fill="white"/>
<path d="M74.2649 52C90.1454 52 100.943 41.2999 100.943 25.9466C100.943 10.5933 90.1437 0 74.2649 0C58.3862 0 47.645 10.595 47.645 25.9483C47.645 41.3016 58.4423 52.0017 74.2649 52.0017V52ZM74.2649 9.95415C82.9269 9.95415 89.5096 16.3508 89.5096 25.9466C89.5096 35.5424 82.9269 41.939 74.2649 41.939C65.603 41.939 59.0203 35.5424 59.0203 25.9466C59.0203 16.3508 65.6608 9.95415 74.2649 9.95415Z" fill="white"/>
<path d="M398.839 0.0689087L390.733 38.7933L379.822 0.0689087H369.643L358.795 38.7933L350.628 0.0689087H338.377L349.836 51.9483H366.231L374.764 19.2157L383.235 51.9483H399.692L411.151 0.0689087H398.839Z" fill="white"/>
<path d="M451.289 0.0689087L442.756 32.8015L434.285 0.0689087H417.828L406.369 51.9483H418.681L426.787 13.224L437.698 51.9483H447.875L458.725 13.224L466.892 51.9483H479.143L467.684 0.0689087H451.289Z" fill="white"/>
<path d="M117.286 32.2554H139.13V51.9862H151.32V0H139.13V22.0032H117.286V0H105.157V52H117.286V32.2554Z" fill="white"/>
<path d="M205 39.6012V36.2039V0H192.599V27.137L155.486 0V15.7892L205 51.8794V39.6012Z" fill="white"/>
<path d="M155.486 33.7714V51.9931H180.218L155.486 33.7714Z" fill="white"/>
<path d="M275.673 0.0499878V27.187L238.488 0.0499878V51.9931H250.617V24.6287L288.073 51.9294V0.0499878H275.673Z" fill="white"/>
<path d="M575.099 0.0499878V27.187L537.986 0.0499878V15.8391L587.5 51.9294V0.0499878H575.099Z" fill="white"/>
<path d="M537.986 51.981H562.717L537.986 33.7593V51.981Z" fill="white"/>
<path d="M517.057 0.0689087H499.991L480.184 51.9483H492.739L497.133 40.7779H520.156L520.907 42.6488L524.311 51.9483H536.927L517.057 0.0689087ZM508.524 11.8233L516.633 32.0125H500.581L508.524 11.8233Z" fill="white"/>
<path d="M334.158 0.0689087H292.258V10.1368H334.158V0.0689087Z" fill="white"/>
<path d="M334.158 41.8202H292.258V51.9483H334.158V41.8202Z" fill="white"/>
<path d="M334.158 21.5793H292.258V30.3465H334.158V21.5793Z" fill="white"/>
</g>
<defs>
<clipPath id="clip0_413_677">
<rect width="587" height="52" fill="white" transform="translate(0.5)"/>
</clipPath>
</defs>
</svg>
